<svg fill="#FF3547" xmlns="http://www.w3.org/2000/svg" xmlns:xlink="http://www.w3.org/1999/xlink" version="1.1" x="0px" y="0px" viewBox="0 0 100 100" enable-background="new 0 0 100 100" xml:space="preserve"><path d="M31.751,65.8c-1.44,1.351-3.71,1.29-5.07-0.14c-1.36-1.439-1.3-3.721,0.14-5.08l21.74-20.55l5.121,5.39  c-0.24,0.01-0.471,0.09-0.66,0.27L31.751,65.8z"></path><g><path d="M11.646,18.304c9.235-8.738,22.649-9.193,31.831-1.142l22.69,23.728c1.757,1.851,1.683,4.792-0.181,6.548   c-0.897,0.857-2.072,1.322-3.311,1.27c-1.236-0.032-2.392-0.55-3.236-1.449l-14.355-15.14c-0.317-0.338-0.814-0.433-1.238-0.222   c-0.053,0.021-5.279,2.486-12.345-4.961c-0.402-0.434-1.068-0.444-1.491-0.042c-0.424,0.402-0.445,1.069-0.042,1.492   c6.612,6.982,12.102,6.262,14.059,5.691l3.649,3.84L24.667,59.665c-1.131,1.08-1.735,2.508-1.819,3.968l-3.185-3.396   c-0.032-0.029-0.085-0.053-0.116-0.073l-8.061-8.548C2.209,41.82,2.284,27.19,11.646,18.304z M95.387,35.758   c-0.351,6.146-3.143,11.996-7.871,16.471L64.434,74.072l-14.177,13.31c-1.629,1.533-3.565,1.597-4.929,0.159   c-1.629-1.727-0.741-3.725,0.518-4.909c0.021-0.021,0.032-0.043,0.042-0.063c0.095-0.084,0.201-0.137,0.297-0.221l22.426-21.254   c0.423-0.402,0.443-1.066,0.041-1.49c-0.4-0.424-1.067-0.444-1.491-0.045L44.725,80.812c-1.512,1.428-3.925,1.363-5.363-0.148   c-1.47-1.557-1.438-3.977,0.053-5.396l0,0l22.501-21.283c0.423-0.401,0.443-1.078,0.042-1.502s-1.067-0.444-1.491-0.043   l-22.5,21.295l0,0l0,0l-0.117,0.104c-0.73,0.698-1.693,1.069-2.708,1.037c-1.016-0.03-1.957-0.444-2.655-1.185   c-1.438-1.522-1.375-3.852,0.159-5.301c0.011-0.01,0.021-0.031,0.032-0.041c0.032-0.031,0.084-0.064,0.116-0.097l22.513-21.272   c0.189-0.18,0.284-0.434,0.316-0.677l2.273,2.412c1.248,1.312,2.92,2.063,4.729,2.104c1.809,0.043,3.514-0.602,4.822-1.85   c2.697-2.56,2.814-6.834,0.255-9.542L50.966,21.943l4.179-3.914c9.638-9.119,24.902-8.706,34.021,0.931   C93.534,23.572,95.745,29.538,95.387,35.758z"></path></g></svg>