<svg fill="#FF3547" xmlns="http://www.w3.org/2000/svg" xmlns:xlink="http://www.w3.org/1999/xlink" version="1.1" x="0px" y="0px" viewBox="0 0 100 100" enable-background="new 0 0 100 100" xml:space="preserve"><path d="M79.9,68.4c-1.2-1.4-3.6-2.7-7-3.7c-7.2-2.2-15-4.9-15-9.8c0-0.8,0-1.8,0-2l0,0l0-0.1c0-2.4,0.7-4,1.1-4.6  c0.2-0.3,0.3-0.4,0.3-0.5c2.3-0.7,3.3-3.8,3-5.7c-0.1-0.9-0.5-1.4-0.9-1.6c0-0.6,0.2-1.5,0.2-2.2c0.1-0.9,0.3-1.9,0.3-2.8  c0,0,0-0.6,0-0.8c-0.1-1.8-0.5-3.4-1.4-4.7c-2.1-4-6.1-6.4-10.6-6.4c-4.5,0-8.5,2.5-10.6,6.4c-0.8,1.4-1.3,3-1.4,4.7  c0,0.2,0,0.8,0,0.9c0,0.9,0.2,1.8,0.3,2.8c0.1,0.7,0.2,1.6,0.2,2.2c-0.4,0.3-0.8,0.8-0.9,1.6c-0.3,1.9,0.7,5,3,5.7  c0,0,0.1,0.2,0.3,0.4c0.4,0.7,1.1,2.2,1.1,4.6l0,0.2c0,0.2,0,1.1,0,2c0,4.9-7.7,7.6-15,9.8c-3.5,1-5.8,2.3-7,3.7  c-0.9,1.1-0.9,2-0.9,2.4v5.3c0,0.2,0.1,0.5,0.6,0.5h60.5c0.5,0,0.5-0.5,0.5-0.5v-5.3C80.8,70.4,80.8,69.4,79.9,68.4z"></path><path d="M90.3,65.3c-5.3-1.6-10.7-3.5-10.7-7.4c0,0,0-1.2,0-1.4c0,0,0,0,0,0c-0.2-2.3,0.3-3.1,0.9-3.6c0.3-0.3,0.4-0.6,0.6-0.6  c1.6-0.5,1.9-3.6,1.1-3.6c-0.5,0,0.1-2.4,0.2-4c0,0,0-0.4,0-0.5c0-0.6-0.2-1.8-0.8-2.8c-1.2-2.3-3.6-3.9-6.5-3.9s-5.2,1.6-6.5,3.9  c-0.7,1.1-0.8,2.2-0.8,2.8c0,0.1,0,0.5,0,0.5c0.1,1.6,0.7,4,0.2,4c-0.9,0-0.5,3.1,1.1,3.6c0.2,0.1,0.4,0.2,0.6,0.6  c0.5,0.8,0.9,2,0.9,3.6c0,0,0,0,0,0c0,0.2,0,1.4,0,1.4c0,0.8-0.2,1.4-0.6,2.1c0,0,0,0,0,0c-0.2,0.4,0.1,0.5,0.1,0.5l7,2.4v0l0,0  l0.5,0.2c0.8,0.3,2.4,1,3.8,2.2c0.1,0.1,0.1,0.1,0.2,0.2c0,0,0,0,0.1,0.1c0.1,0.1,0.3,0.3,0.4,0.4c0,0,0.1,0.1,0.1,0.1  c0.9,1,1.7,2.4,1.7,4.2v1.3c0,0.1,0,0.3,0.3,0.3h10.5c0.3,0,0.3-0.2,0.3-0.3v-2.9C95.1,68.6,95.3,66.9,90.3,65.3z"></path><path d="M9.7,65.3c5.3-1.6,10.7-3.5,10.7-7.4c0,0,0-1.2,0-1.4c0,0,0,0,0,0c0.2-2.3-0.3-3.1-0.9-3.6c-0.3-0.3-0.4-0.6-0.6-0.6  c-1.6-0.5-1.9-3.6-1.1-3.6c0.5,0-0.1-2.4-0.2-4c0,0,0-0.4,0-0.5c0-0.6,0.2-1.8,0.8-2.8c1.2-2.3,3.6-3.9,6.5-3.9s5.2,1.6,6.5,3.9  c0.7,1.1,0.8,2.2,0.8,2.8c0,0.1,0,0.5,0,0.5c-0.1,1.6-0.7,4-0.2,4c0.9,0,0.5,3.1-1.1,3.6c-0.2,0.1-0.4,0.2-0.6,0.6  c-0.5,0.8-0.9,2-0.9,3.6c0,0,0,0,0,0c0,0.2,0,1.4,0,1.4c0,0.8,0.2,1.4,0.6,2.1c0,0,0,0,0,0c0.2,0.4-0.1,0.5-0.1,0.5l-7,2.4v0l0,0  L22.4,63c-0.8,0.3-2.4,1-3.8,2.2c-0.1,0.1-0.1,0.1-0.2,0.2c0,0,0,0-0.1,0.1c-0.1,0.1-0.3,0.3-0.4,0.4c0,0-0.1,0.1-0.1,0.1  c-0.9,1-1.7,2.4-1.7,4.2v1.3c0,0.1,0,0.3-0.3,0.3H5.2c-0.3,0-0.3-0.2-0.3-0.3v-2.9C4.9,68.6,4.7,66.9,9.7,65.3z"></path></svg>