<svg fill="#FF3547" xmlns="http://www.w3.org/2000/svg" viewBox="0 0 128 128" x="0px" y="0px"><title>Analytics</title><g data-name="Layer 2"><path d="M17.67,103.32H7a7,7,0,0,0-7,7V126a2,2,0,0,0,2,2H22.67a2,2,0,0,0,2-2V110.32A7,7,0,0,0,17.67,103.32Z"></path><path d="M52.11,62H41.44a7,7,0,0,0-7,7v57a2,2,0,0,0,2,2H57.11a2,2,0,0,0,2-2V69A7,7,0,0,0,52.11,62Z"></path><path d="M86.56,82.65H75.89a7,7,0,0,0-7,7V126a2,2,0,0,0,2,2H91.56a2,2,0,0,0,2-2V89.65A7,7,0,0,0,86.56,82.65Z"></path><path d="M121,41.32H110.33a7,7,0,0,0-7,7V126a2,2,0,0,0,2,2H126a2,2,0,0,0,2-2V48.32A7,7,0,0,0,121,41.32Z"></path><path d="M109.42,23a12.33,12.33,0,1,0-3.07-2.56L87.47,43.06a12.27,12.27,0,0,0-15.64,2.65L58.23,37.55a12.32,12.32,0,1,0-20.78,3.51L18.58,63.68a12.33,12.33,0,1,0,3.07,2.56L40.53,43.63A12.27,12.27,0,0,0,56.17,41l13.59,8.16a12.32,12.32,0,1,0,20.77-3.51Z"></path></g></svg>